# xmcd
#
# Track frame offsets: 
#        150
#        16479
#        38987
#        57160
#        77863
#        98229
#        114395
#        134133
#        151619
#        175338
#        198173
#        209618
#        231348
#        254215
#
# Disc length: 3576 seconds
#
# Revision: 4
# Processed by: cddbd v1.5.2PL0 Copyright (c) Steve Scherf et al.
# Submitted via: ExactAudioCopy v0.95a5
#
DISCID=c80df60e
DTITLE=Gerald Veasley - Velvet
DYEAR=2003
DGENRE=Jazz
TTITLE0=Coup Deville
TTITLE1=Sarah's Song
TTITLE2=Let's Do it Again
TTITLE3=Velvet
TTITLE4=Put On Your Sunday Clothes
TTITLE5=Do You Remember?
TTITLE6=Luscious
TTITLE7=Summer Kiss
TTITLE8=Bread Puddin'
TTITLE9=Forever
TTITLE10=It's Alright (Tonight's The Night)
TTITLE11=Still Movin' On
TTITLE12=Home
TTITLE13=Sunday Clothes Reprise
EXTD=YEAR: 2003
EXTT0=
EXTT1=
EXTT2=
EXTT3=
EXTT4=
EXTT5=
EXTT6=
EXTT7=
EXTT8=
EXTT9=
EXTT10=
EXTT11=
EXTT12=
EXTT13=
PLAYORDER=
